<svg xmlns="http://www.w3.org/2000/svg" width="480" height="580">
  
  <g transform="translate(240.0,190.0)">
    <rect x="-1.215" y="-99.225" width="2.430" height="42.525" rx="1.215" fill="#00D4FF" opacity="0.805" transform="rotate(0.000)"/>
    <rect x="-1.215" y="-106.199" width="2.430" height="49.499" rx="1.215" fill="#00D4FF" opacity="0.88" transform="rotate(5.625)"/>
    <rect x="-1.215" y="-112.112" width="2.430" height="55.412" rx="1.215" fill="#00D4FF" opacity="0.943" transform="rotate(11.250)"/>
    <rect x="-1.215" y="-116.063" width="2.430" height="59.363" rx="1.215" fill="#00D4FF" opacity="0.985" transform="rotate(16.875)"/>
    <rect x="-1.215" y="-117.450" width="2.430" height="60.750" rx="1.215" fill="#00D4FF" opacity="1.0" transform="rotate(22.500)"/>
    <rect x="-1.215" y="-116.063" width="2.430" height="59.363" rx="1.215" fill="#00D4FF" opacity="0.985" transform="rotate(28.125)"/>
    <rect x="-1.215" y="-112.112" width="2.430" height="55.412" rx="1.215" fill="#00D4FF" opacity="0.943" transform="rotate(33.750)"/>
    <rect x="-1.215" y="-106.199" width="2.430" height="49.499" rx="1.215" fill="#00D4FF" opacity="0.88" transform="rotate(39.375)"/>
    <rect x="-1.215" y="-99.225" width="2.430" height="42.525" rx="1.215" fill="#00D4FF" opacity="0.805" transform="rotate(45.000)"/>
    <rect x="-1.215" y="-92.251" width="2.430" height="35.551" rx="1.215" fill="#00D4FF" opacity="0.73" transform="rotate(50.625)"/>
    <rect x="-1.215" y="-86.338" width="2.430" height="29.638" rx="1.215" fill="#00D4FF" opacity="0.667" transform="rotate(56.250)"/>
    <rect x="-1.215" y="-82.387" width="2.430" height="25.687" rx="1.215" fill="#00D4FF" opacity="0.625" transform="rotate(61.875)"/>
    <rect x="-1.215" y="-81.000" width="2.430" height="24.300" rx="1.215" fill="#00D4FF" opacity="0.61" transform="rotate(67.500)"/>
    <rect x="-1.215" y="-82.387" width="2.430" height="25.687" rx="1.215" fill="#00D4FF" opacity="0.625" transform="rotate(73.125)"/>
    <rect x="-1.215" y="-86.338" width="2.430" height="29.638" rx="1.215" fill="#00D4FF" opacity="0.667" transform="rotate(78.750)"/>
    <rect x="-1.215" y="-92.251" width="2.430" height="35.551" rx="1.215" fill="#00D4FF" opacity="0.73" transform="rotate(84.375)"/>
    <rect x="-1.215" y="-99.225" width="2.430" height="42.525" rx="1.215" fill="#00D4FF" opacity="0.805" transform="rotate(90.000)"/>
    <rect x="-1.215" y="-106.199" width="2.430" height="49.499" rx="1.215" fill="#00D4FF" opacity="0.88" transform="rotate(95.625)"/>
    <rect x="-1.215" y="-112.112" width="2.430" height="55.412" rx="1.215" fill="#00D4FF" opacity="0.943" transform="rotate(101.250)"/>
    <rect x="-1.215" y="-116.063" width="2.430" height="59.363" rx="1.215" fill="#00D4FF" opacity="0.985" transform="rotate(106.875)"/>
    <rect x="-1.215" y="-117.450" width="2.430" height="60.750" rx="1.215" fill="#00D4FF" opacity="1.0" transform="rotate(112.500)"/>
    <rect x="-1.215" y="-116.063" width="2.430" height="59.363" rx="1.215" fill="#00D4FF" opacity="0.985" transform="rotate(118.125)"/>
    <rect x="-1.215" y="-112.112" width="2.430" height="55.412" rx="1.215" fill="#00D4FF" opacity="0.943" transform="rotate(123.750)"/>
    <rect x="-1.215" y="-106.199" width="2.430" height="49.499" rx="1.215" fill="#00D4FF" opacity="0.88" transform="rotate(129.375)"/>
    <rect x="-1.215" y="-99.225" width="2.430" height="42.525" rx="1.215" fill="#00D4FF" opacity="0.805" transform="rotate(135.000)"/>
    <rect x="-1.215" y="-92.251" width="2.430" height="35.551" rx="1.215" fill="#00D4FF" opacity="0.73" transform="rotate(140.625)"/>
    <rect x="-1.215" y="-86.338" width="2.430" height="29.638" rx="1.215" fill="#00D4FF" opacity="0.667" transform="rotate(146.250)"/>
    <rect x="-1.215" y="-82.387" width="2.430" height="25.687" rx="1.215" fill="#00D4FF" opacity="0.625" transform="rotate(151.875)"/>
    <rect x="-1.215" y="-81.000" width="2.430" height="24.300" rx="1.215" fill="#00D4FF" opacity="0.61" transform="rotate(157.500)"/>
    <rect x="-1.215" y="-82.387" width="2.430" height="25.687" rx="1.215" fill="#00D4FF" opacity="0.625" transform="rotate(163.125)"/>
    <rect x="-1.215" y="-86.338" width="2.430" height="29.638" rx="1.215" fill="#00D4FF" opacity="0.667" transform="rotate(168.750)"/>
    <rect x="-1.215" y="-92.251" width="2.430" height="35.551" rx="1.215" fill="#00D4FF" opacity="0.73" transform="rotate(174.375)"/>
    <rect x="-1.215" y="-99.225" width="2.430" height="42.525" rx="1.215" fill="#00D4FF" opacity="0.805" transform="rotate(180.000)"/>
    <rect x="-1.215" y="-106.199" width="2.430" height="49.499" rx="1.215" fill="#00D4FF" opacity="0.88" transform="rotate(185.625)"/>
    <rect x="-1.215" y="-112.112" width="2.430" height="55.412" rx="1.215" fill="#00D4FF" opacity="0.943" transform="rotate(191.250)"/>
    <rect x="-1.215" y="-116.063" width="2.430" height="59.363" rx="1.215" fill="#00D4FF" opacity="0.985" transform="rotate(196.875)"/>
    <rect x="-1.215" y="-117.450" width="2.430" height="60.750" rx="1.215" fill="#00D4FF" opacity="1.0" transform="rotate(202.500)"/>
    <rect x="-1.215" y="-116.063" width="2.430" height="59.363" rx="1.215" fill="#00D4FF" opacity="0.985" transform="rotate(208.125)"/>
    <rect x="-1.215" y="-112.112" width="2.430" height="55.412" rx="1.215" fill="#00D4FF" opacity="0.943" transform="rotate(213.750)"/>
    <rect x="-1.215" y="-106.199" width="2.430" height="49.499" rx="1.215" fill="#00D4FF" opacity="0.88" transform="rotate(219.375)"/>
    <rect x="-1.215" y="-99.225" width="2.430" height="42.525" rx="1.215" fill="#00D4FF" opacity="0.805" transform="rotate(225.000)"/>
    <rect x="-1.215" y="-92.251" width="2.430" height="35.551" rx="1.215" fill="#00D4FF" opacity="0.73" transform="rotate(230.625)"/>
    <rect x="-1.215" y="-86.338" width="2.430" height="29.638" rx="1.215" fill="#00D4FF" opacity="0.667" transform="rotate(236.250)"/>
    <rect x="-1.215" y="-82.387" width="2.430" height="25.687" rx="1.215" fill="#00D4FF" opacity="0.625" transform="rotate(241.875)"/>
    <rect x="-1.215" y="-81.000" width="2.430" height="24.300" rx="1.215" fill="#00D4FF" opacity="0.61" transform="rotate(247.500)"/>
    <rect x="-1.215" y="-82.387" width="2.430" height="25.687" rx="1.215" fill="#00D4FF" opacity="0.625" transform="rotate(253.125)"/>
    <rect x="-1.215" y="-86.338" width="2.430" height="29.638" rx="1.215" fill="#00D4FF" opacity="0.667" transform="rotate(258.750)"/>
    <rect x="-1.215" y="-92.251" width="2.430" height="35.551" rx="1.215" fill="#00D4FF" opacity="0.73" transform="rotate(264.375)"/>
    <rect x="-1.215" y="-99.225" width="2.430" height="42.525" rx="1.215" fill="#00D4FF" opacity="0.805" transform="rotate(270.000)"/>
    <rect x="-1.215" y="-106.199" width="2.430" height="49.499" rx="1.215" fill="#00D4FF" opacity="0.88" transform="rotate(275.625)"/>
    <rect x="-1.215" y="-112.112" width="2.430" height="55.412" rx="1.215" fill="#00D4FF" opacity="0.943" transform="rotate(281.250)"/>
    <rect x="-1.215" y="-116.063" width="2.430" height="59.363" rx="1.215" fill="#00D4FF" opacity="0.985" transform="rotate(286.875)"/>
    <rect x="-1.215" y="-117.450" width="2.430" height="60.750" rx="1.215" fill="#00D4FF" opacity="1.0" transform="rotate(292.500)"/>
    <rect x="-1.215" y="-116.063" width="2.430" height="59.363" rx="1.215" fill="#00D4FF" opacity="0.985" transform="rotate(298.125)"/>
    <rect x="-1.215" y="-112.112" width="2.430" height="55.412" rx="1.215" fill="#00D4FF" opacity="0.943" transform="rotate(303.750)"/>
    <rect x="-1.215" y="-106.199" width="2.430" height="49.499" rx="1.215" fill="#00D4FF" opacity="0.88" transform="rotate(309.375)"/>
    <rect x="-1.215" y="-99.225" width="2.430" height="42.525" rx="1.215" fill="#00D4FF" opacity="0.805" transform="rotate(315.000)"/>
    <rect x="-1.215" y="-92.251" width="2.430" height="35.551" rx="1.215" fill="#00D4FF" opacity="0.73" transform="rotate(320.625)"/>
    <rect x="-1.215" y="-86.338" width="2.430" height="29.638" rx="1.215" fill="#00D4FF" opacity="0.667" transform="rotate(326.250)"/>
    <rect x="-1.215" y="-82.387" width="2.430" height="25.687" rx="1.215" fill="#00D4FF" opacity="0.625" transform="rotate(331.875)"/>
    <rect x="-1.215" y="-81.000" width="2.430" height="24.300" rx="1.215" fill="#00D4FF" opacity="0.61" transform="rotate(337.500)"/>
    <rect x="-1.215" y="-82.387" width="2.430" height="25.687" rx="1.215" fill="#00D4FF" opacity="0.625" transform="rotate(343.125)"/>
    <rect x="-1.215" y="-86.338" width="2.430" height="29.638" rx="1.215" fill="#00D4FF" opacity="0.667" transform="rotate(348.750)"/>
    <rect x="-1.215" y="-92.251" width="2.430" height="35.551" rx="1.215" fill="#00D4FF" opacity="0.73" transform="rotate(354.375)"/>
    <circle r="3.375" fill="#00D4FF"/>
  </g>
  <text x="240.0" y="398" font-family="Georgia,'Georgia Pro',serif" font-size="46" font-weight="normal" letter-spacing="14" fill="#00D4FF" text-anchor="middle">AXON</text>
  <text x="240.0" y="440" font-family="Georgia,'Georgia Pro',serif" font-size="12" font-weight="normal" letter-spacing="5" fill="#2a4455" text-anchor="middle">by Aretica</text>
</svg>