<svg xmlns="http://www.w3.org/2000/svg" width="512" height="512" viewBox="0 0 512 512">
  
  <g transform="translate(256.0,256.0)">
    <rect x="-2.074" y="-169.344" width="4.147" height="72.576" rx="2.074" fill="#00D4FF" opacity="0.805" transform="rotate(0.000)"/>
    <rect x="-2.074" y="-181.247" width="4.147" height="84.479" rx="2.074" fill="#00D4FF" opacity="0.88" transform="rotate(5.625)"/>
    <rect x="-2.074" y="-191.338" width="4.147" height="94.570" rx="2.074" fill="#00D4FF" opacity="0.943" transform="rotate(11.250)"/>
    <rect x="-2.074" y="-198.080" width="4.147" height="101.312" rx="2.074" fill="#00D4FF" opacity="0.985" transform="rotate(16.875)"/>
    <rect x="-2.074" y="-200.448" width="4.147" height="103.680" rx="2.074" fill="#00D4FF" opacity="1.0" transform="rotate(22.500)"/>
    <rect x="-2.074" y="-198.080" width="4.147" height="101.312" rx="2.074" fill="#00D4FF" opacity="0.985" transform="rotate(28.125)"/>
    <rect x="-2.074" y="-191.338" width="4.147" height="94.570" rx="2.074" fill="#00D4FF" opacity="0.943" transform="rotate(33.750)"/>
    <rect x="-2.074" y="-181.247" width="4.147" height="84.479" rx="2.074" fill="#00D4FF" opacity="0.88" transform="rotate(39.375)"/>
    <rect x="-2.074" y="-169.344" width="4.147" height="72.576" rx="2.074" fill="#00D4FF" opacity="0.805" transform="rotate(45.000)"/>
    <rect x="-2.074" y="-157.441" width="4.147" height="60.673" rx="2.074" fill="#00D4FF" opacity="0.73" transform="rotate(50.625)"/>
    <rect x="-2.074" y="-147.350" width="4.147" height="50.582" rx="2.074" fill="#00D4FF" opacity="0.667" transform="rotate(56.250)"/>
    <rect x="-2.074" y="-140.608" width="4.147" height="43.840" rx="2.074" fill="#00D4FF" opacity="0.625" transform="rotate(61.875)"/>
    <rect x="-2.074" y="-138.240" width="4.147" height="41.472" rx="2.074" fill="#00D4FF" opacity="0.61" transform="rotate(67.500)"/>
    <rect x="-2.074" y="-140.608" width="4.147" height="43.840" rx="2.074" fill="#00D4FF" opacity="0.625" transform="rotate(73.125)"/>
    <rect x="-2.074" y="-147.350" width="4.147" height="50.582" rx="2.074" fill="#00D4FF" opacity="0.667" transform="rotate(78.750)"/>
    <rect x="-2.074" y="-157.441" width="4.147" height="60.673" rx="2.074" fill="#00D4FF" opacity="0.73" transform="rotate(84.375)"/>
    <rect x="-2.074" y="-169.344" width="4.147" height="72.576" rx="2.074" fill="#00D4FF" opacity="0.805" transform="rotate(90.000)"/>
    <rect x="-2.074" y="-181.247" width="4.147" height="84.479" rx="2.074" fill="#00D4FF" opacity="0.88" transform="rotate(95.625)"/>
    <rect x="-2.074" y="-191.338" width="4.147" height="94.570" rx="2.074" fill="#00D4FF" opacity="0.943" transform="rotate(101.250)"/>
    <rect x="-2.074" y="-198.080" width="4.147" height="101.312" rx="2.074" fill="#00D4FF" opacity="0.985" transform="rotate(106.875)"/>
    <rect x="-2.074" y="-200.448" width="4.147" height="103.680" rx="2.074" fill="#00D4FF" opacity="1.0" transform="rotate(112.500)"/>
    <rect x="-2.074" y="-198.080" width="4.147" height="101.312" rx="2.074" fill="#00D4FF" opacity="0.985" transform="rotate(118.125)"/>
    <rect x="-2.074" y="-191.338" width="4.147" height="94.570" rx="2.074" fill="#00D4FF" opacity="0.943" transform="rotate(123.750)"/>
    <rect x="-2.074" y="-181.247" width="4.147" height="84.479" rx="2.074" fill="#00D4FF" opacity="0.88" transform="rotate(129.375)"/>
    <rect x="-2.074" y="-169.344" width="4.147" height="72.576" rx="2.074" fill="#00D4FF" opacity="0.805" transform="rotate(135.000)"/>
    <rect x="-2.074" y="-157.441" width="4.147" height="60.673" rx="2.074" fill="#00D4FF" opacity="0.73" transform="rotate(140.625)"/>
    <rect x="-2.074" y="-147.350" width="4.147" height="50.582" rx="2.074" fill="#00D4FF" opacity="0.667" transform="rotate(146.250)"/>
    <rect x="-2.074" y="-140.608" width="4.147" height="43.840" rx="2.074" fill="#00D4FF" opacity="0.625" transform="rotate(151.875)"/>
    <rect x="-2.074" y="-138.240" width="4.147" height="41.472" rx="2.074" fill="#00D4FF" opacity="0.61" transform="rotate(157.500)"/>
    <rect x="-2.074" y="-140.608" width="4.147" height="43.840" rx="2.074" fill="#00D4FF" opacity="0.625" transform="rotate(163.125)"/>
    <rect x="-2.074" y="-147.350" width="4.147" height="50.582" rx="2.074" fill="#00D4FF" opacity="0.667" transform="rotate(168.750)"/>
    <rect x="-2.074" y="-157.441" width="4.147" height="60.673" rx="2.074" fill="#00D4FF" opacity="0.73" transform="rotate(174.375)"/>
    <rect x="-2.074" y="-169.344" width="4.147" height="72.576" rx="2.074" fill="#00D4FF" opacity="0.805" transform="rotate(180.000)"/>
    <rect x="-2.074" y="-181.247" width="4.147" height="84.479" rx="2.074" fill="#00D4FF" opacity="0.88" transform="rotate(185.625)"/>
    <rect x="-2.074" y="-191.338" width="4.147" height="94.570" rx="2.074" fill="#00D4FF" opacity="0.943" transform="rotate(191.250)"/>
    <rect x="-2.074" y="-198.080" width="4.147" height="101.312" rx="2.074" fill="#00D4FF" opacity="0.985" transform="rotate(196.875)"/>
    <rect x="-2.074" y="-200.448" width="4.147" height="103.680" rx="2.074" fill="#00D4FF" opacity="1.0" transform="rotate(202.500)"/>
    <rect x="-2.074" y="-198.080" width="4.147" height="101.312" rx="2.074" fill="#00D4FF" opacity="0.985" transform="rotate(208.125)"/>
    <rect x="-2.074" y="-191.338" width="4.147" height="94.570" rx="2.074" fill="#00D4FF" opacity="0.943" transform="rotate(213.750)"/>
    <rect x="-2.074" y="-181.247" width="4.147" height="84.479" rx="2.074" fill="#00D4FF" opacity="0.88" transform="rotate(219.375)"/>
    <rect x="-2.074" y="-169.344" width="4.147" height="72.576" rx="2.074" fill="#00D4FF" opacity="0.805" transform="rotate(225.000)"/>
    <rect x="-2.074" y="-157.441" width="4.147" height="60.673" rx="2.074" fill="#00D4FF" opacity="0.73" transform="rotate(230.625)"/>
    <rect x="-2.074" y="-147.350" width="4.147" height="50.582" rx="2.074" fill="#00D4FF" opacity="0.667" transform="rotate(236.250)"/>
    <rect x="-2.074" y="-140.608" width="4.147" height="43.840" rx="2.074" fill="#00D4FF" opacity="0.625" transform="rotate(241.875)"/>
    <rect x="-2.074" y="-138.240" width="4.147" height="41.472" rx="2.074" fill="#00D4FF" opacity="0.61" transform="rotate(247.500)"/>
    <rect x="-2.074" y="-140.608" width="4.147" height="43.840" rx="2.074" fill="#00D4FF" opacity="0.625" transform="rotate(253.125)"/>
    <rect x="-2.074" y="-147.350" width="4.147" height="50.582" rx="2.074" fill="#00D4FF" opacity="0.667" transform="rotate(258.750)"/>
    <rect x="-2.074" y="-157.441" width="4.147" height="60.673" rx="2.074" fill="#00D4FF" opacity="0.73" transform="rotate(264.375)"/>
    <rect x="-2.074" y="-169.344" width="4.147" height="72.576" rx="2.074" fill="#00D4FF" opacity="0.805" transform="rotate(270.000)"/>
    <rect x="-2.074" y="-181.247" width="4.147" height="84.479" rx="2.074" fill="#00D4FF" opacity="0.88" transform="rotate(275.625)"/>
    <rect x="-2.074" y="-191.338" width="4.147" height="94.570" rx="2.074" fill="#00D4FF" opacity="0.943" transform="rotate(281.250)"/>
    <rect x="-2.074" y="-198.080" width="4.147" height="101.312" rx="2.074" fill="#00D4FF" opacity="0.985" transform="rotate(286.875)"/>
    <rect x="-2.074" y="-200.448" width="4.147" height="103.680" rx="2.074" fill="#00D4FF" opacity="1.0" transform="rotate(292.500)"/>
    <rect x="-2.074" y="-198.080" width="4.147" height="101.312" rx="2.074" fill="#00D4FF" opacity="0.985" transform="rotate(298.125)"/>
    <rect x="-2.074" y="-191.338" width="4.147" height="94.570" rx="2.074" fill="#00D4FF" opacity="0.943" transform="rotate(303.750)"/>
    <rect x="-2.074" y="-181.247" width="4.147" height="84.479" rx="2.074" fill="#00D4FF" opacity="0.88" transform="rotate(309.375)"/>
    <rect x="-2.074" y="-169.344" width="4.147" height="72.576" rx="2.074" fill="#00D4FF" opacity="0.805" transform="rotate(315.000)"/>
    <rect x="-2.074" y="-157.441" width="4.147" height="60.673" rx="2.074" fill="#00D4FF" opacity="0.73" transform="rotate(320.625)"/>
    <rect x="-2.074" y="-147.350" width="4.147" height="50.582" rx="2.074" fill="#00D4FF" opacity="0.667" transform="rotate(326.250)"/>
    <rect x="-2.074" y="-140.608" width="4.147" height="43.840" rx="2.074" fill="#00D4FF" opacity="0.625" transform="rotate(331.875)"/>
    <rect x="-2.074" y="-138.240" width="4.147" height="41.472" rx="2.074" fill="#00D4FF" opacity="0.61" transform="rotate(337.500)"/>
    <rect x="-2.074" y="-140.608" width="4.147" height="43.840" rx="2.074" fill="#00D4FF" opacity="0.625" transform="rotate(343.125)"/>
    <rect x="-2.074" y="-147.350" width="4.147" height="50.582" rx="2.074" fill="#00D4FF" opacity="0.667" transform="rotate(348.750)"/>
    <rect x="-2.074" y="-157.441" width="4.147" height="60.673" rx="2.074" fill="#00D4FF" opacity="0.73" transform="rotate(354.375)"/>
    <circle r="5.760" fill="#00D4FF"/>
  </g>
</svg>